Patient4_TMGait_0pt3_01_right_30_EMG.mot
version=1
nRows=36
nColumns=33
inDegrees=no
endheader
time	1LAddLong	2LGlutMax	3LGlutMed	4LIliopsoas	5LSemiMemb	6LBicFemLong	7LRecFem	8LVastMed	9LVastLat	10LGasMed	11LTibAnt	12lTibPost	13LPeroneusLong	14LSol	15LExtDigLong	16LFlexDigLong	17RAddLong	18RGlutMax	19RGlutMed	20RIliopsoas	21RSemiMemb	22RBicFemLong	23RRecFem	24RVastMed	25RVastLat	26RGasMed	27RTibAnt	28RTibPost	29RPeroneusLong	30RSol	31RExtDigLong	32RFlexDigLong
57.205	-0.014801	0.093689	-0.075531	0.031586	-0.006714	-0.074768	0.022125	-0.011444	0.080872	0.00473	0.078125	-0.003815	-0.064545	0.11627	-0.012207	-0.05722	0.010834	0.014954	0.24017	0.001984	-0.008392	0.013123	0.054321	-0.092621	0.008392	-0.011749	0.0737	-0.004883	-0.005951	0.022278	-0.001373	-0.01709
57.206	-0.032043	0.065613	-0.096893	0.026703	0.004272	-0.1091	0.1384	-0.00824	0.069275	-0.00885	0.000458	-0.000916	-0.046082	0.12726	-0.013123	-0.057526	0.007172	-0.049744	0.075836	0.018616	-0.007477	0.041504	-0.23163	-0.085449	0.02533	-0.002441	0.074768	0.00412	-0.007782	0.008087	-0.001984	-0.018616
57.207	-0.037689	0.048218	-0.098267	0.016327	-0.007324	-0.10468	0.15457	0.002594	0.076599	-0.004578	-0.1564	0.006866	-0.072479	0.17364	0.076599	-0.077057	0.00824	-0.024719	-0.029907	0.014954	-0.010834	0.050812	-0.43289	-0.17288	-0.076599	-0.003662	0.056763	-0.001678	-0.021362	0.030518	-0.00473	-0.009613
57.208	-0.028229	0.058289	-0.069885	0.003815	-0.025635	-0.040436	0.13458	-0.004272	0.091095	-0.016174	-0.12451	-0.000763	-0.11063	0.12985	0.2002	-0.068512	-0.002747	0.056305	0.071564	0.020752	0.015717	0.045776	-0.30426	0.035095	0.012207	-0.00885	0.014191	-0.001831	-0.005493	0.11932	-0.006409	-0.000305
57.209	-0.005035	0.074615	-0.057831	-0.014038	-0.036316	-0.017548	0.046539	-0.009613	0.024109	-0.059509	-0.15366	0.001984	0.026398	0.16571	0.020294	-0.046234	0.012665	0.011749	0.11383	0.077667	0.009766	0.044556	-0.040741	0.06073	0.047302	-0.001831	0.034027	0.001068	0.022888	0.023651	-0.000763	-0.006714
57.21	-0.007019	0.071564	-0.048065	-0.006561	0.046234	-0.030212	0.036621	-0.008698	-0.004425	-0.071716	-0.075989	-0.002899	0.048828	0.12817	-0.039978	-0.048828	0.008392	-0.054321	0.11917	0.084229	0.011139	0.031586	0.024872	-0.001373	0.072021	-0.003052	0.03006	0.000763	0.071564	-0.03952	-0.001526	-0.014343
57.211	-0.010223	0.072479	-0.043335	0.007019	0.079803	0.011292	-0.035858	0.001068	0.009766	-0.050964	0.033569	-0.000305	-0.031586	0.092773	0.001984	-0.041504	0.015717	-0.07019	0.12009	0.05127	0.007324	0.070343	0.10635	-0.12283	0.071411	-0.001221	0.1001	0.001373	0.005035	-0.10452	-0.004272	-0.01236
57.212	-0.003357	0.05661	-0.03067	0.00946	0.092621	0.010529	-0.12299	0.004578	0.057983	-0.052643	0.12131	-0.001373	-0.085907	0.036621	-0.103	-0.043488	0.019531	-0.048981	0.062256	0.035553	0.00946	0.036774	0.17197	-0.21072	0.054626	0.000763	0.36255	-0.002136	-0.1471	-0.12085	-0.003357	-0.018005
57.213	0.015717	0.073242	-0.026855	0.003967	0.077972	0.047302	-0.076294	-0.001831	0.10101	-0.039063	0.1001	-0.009308	-0.087433	-0.036163	0.23148	-0.023804	0.011597	-0.010376	0.005341	-0.009766	0.004578	0.040436	0.12497	-0.17914	0.032959	-0.002441	0.49362	0.003662	-0.34943	-0.13168	-0.005493	-0.006409
57.214	0.006714	0.050354	-0.038147	0.001831	0.051575	0.030975	-0.071411	-0.016785	0.29251	-0.028534	0.032043	0.007782	-0.098114	-0.007172	-0.21637	-0.038605	0.01358	0.009155	-0.008087	-0.094147	0.001678	0.075531	-0.045471	-0.20233	-0.005341	-0.00351	-0.007019	0.005035	-0.084686	-0.23331	-0.004578	-0.007477
57.215	0.001373	0.031738	-0.020905	0.018158	0.033417	0.027771	-0.087891	-0.014496	0.31204	-0.019836	0.014343	0.008545	-0.1384	0.020294	-0.060425	-0.023499	0.011292	-0.055695	0.06958	-0.063477	-0.008392	0.070343	-0.60471	-0.26947	-0.1268	0.004578	0.26367	0.000916	0.40909	-0.3093	-0.003052	-0.013885
57.216	-0.005188	0.019073	-0.010681	-0.001526	0.016174	0.024872	-0.052185	-0.005951	0.17853	-0.002594	0.019989	-0.005188	-0.15732	-0.035553	-0.14786	-0.018158	0.006256	-0.14313	0.18601	-0.013733	-0.000305	0.052795	-0.6926	-0.11917	-0.09903	0.001831	0.17975	-0.002136	0.99625	-0.32028	-0.004272	-0.006409
57.217	-0.011139	0.010681	-0.014191	0.004272	-0.055542	0.035858	-0.05249	0.005798	0.053406	-0.011902	0.047302	-0.006409	-0.13123	-0.036621	-0.17425	-0.008392	0.008545	-0.11368	0.070343	-0.002594	-0.001221	0.040894	-0.56992	0.17487	0.41672	0.014191	-0.53101	0.005646	0.53909	-0.39597	-0.003662	-0.008545
57.218	-0.006256	0.083313	-0.022736	0.000763	-0.12268	0.026703	-0.053101	0.009918	-0.015717	-0.002594	0.021973	-0.008392	-0.13901	-0.057983	-0.29282	0.002747	0.023804	-0.1294	-0.18768	0.023499	-0.025024	0.050354	-0.37994	0.47958	0.61752	0.014648	-0.17075	-0.000153	-0.92987	-0.3894	-0.001221	-0.021667
57.219	0.005035	0.076904	-0.005798	0.011749	-0.12299	-0.013885	-0.048981	0.003052	-0.1088	-0.015564	0.030212	-0.018463	-0.16769	-0.052185	-0.10178	0.000763	0.023956	-0.092621	-0.33936	0.015411	-0.027161	0.026245	-0.32501	0.49088	0.56503	0.022278	-0.53223	-0.001373	-1.3399	-0.29236	-0.003357	-0.016632
57.22	0.013123	0.080719	0.004272	-0.003204	-0.080414	-0.024872	-0.018463	-0.000458	-0.24323	-0.014343	0.012054	-0.00946	-0.16052	0.017548	0.005493	0.003052	0.03891	-0.15823	-0.25101	0.015411	-0.040283	0.027771	-0.26977	0.37628	0.34485	0.014801	-0.24292	0.00412	1.2801	-0.16129	-0.003204	-0.019379
57.221	0.01709	0.10132	0.010071	0.000916	0.063171	-0.046844	-0.03006	-0.001373	-0.27557	-0.001068	-0.00061	-0.016327	-0.089111	-0.03418	0.02533	0.006714	0.018921	-0.16464	-0.13657	-0.061188	-0.050507	0.071869	-0.30075	0.14358	0.079803	0.000153	0.17425	0.006714	1.0555	-0.11673	-0.003815	-0.021362
57.222	0.033875	0.15305	-0.00824	-0.003815	0.16449	-0.001831	-0.040741	-0.005341	-0.22507	0.003815	0.010529	-0.012207	-0.031738	-0.05722	0.002289	0.005035	-0.003967	-0.11475	-0.30243	-0.049896	-0.17929	0.1355	-0.2388	0.11108	-0.31845	-0.008087	0.19165	0.003052	-0.20554	0.054016	-0.006104	-0.023499
57.223	0.027313	0.1796	-0.019226	-0.002441	0.085602	0.034637	-0.031433	-0.005188	-0.12619	0.016327	0.001221	-0.017548	-0.017548	-0.06012	0.000153	-0.004578	0.014496	-0.13733	-0.50415	0.052948	-0.097351	0.13931	-0.020599	-0.066376	-0.72464	-0.007019	-0.13016	0.00412	-0.77194	0.24368	-0.00412	-0.02655
57.224	-0.00351	0.14725	-0.008545	0.007019	-0.019989	0.11307	0.016479	0.002136	-0.072021	0.005951	-0.00061	-0.026093	-0.037537	-0.058594	0.032654	-0.005493	0.024109	-0.15488	-0.24277	0.06012	-0.046234	0.10056	0.11856	-0.36423	-0.5925	-0.003662	-0.39581	-0.000916	-0.65796	0.40085	-0.005341	-0.01358
57.225	-0.011749	0.13153	-0.006714	0.014496	-0.058136	0.1503	0.047302	0.02121	-0.053558	0.009918	0	-0.007324	-0.018463	-0.019684	0.067291	-0.007477	0.027618	-0.14877	-0.14801	0.075378	0.020905	0.049133	-0.029449	-0.35645	-0.25116	-0.000153	-0.27954	0.008392	-0.054169	0.3865	-0.005341	-0.016327
57.226	-0.034332	0.078735	0.005951	0.014343	-0.12817	0.12695	0.000763	0.02182	-0.027466	0.013123	-0.001678	-0.026855	-0.04303	-0.02533	0.076599	-0.016937	0.002441	-0.14252	-0.16525	0.066833	0.046692	0.062866	-0.08194	-0.23529	-0.092163	0.003052	-0.15243	0.003967	0.029449	0.32028	-0.00351	-0.015411
57.227	-0.014648	0.078125	0.023346	0.01709	-0.1088	0.082245	-0.047607	0.021667	0.068359	-0.001831	-0.000916	-0.018158	-0.02655	0.005035	0.070648	-0.011444	0.004272	-0.06134	-0.34027	0.070953	0.11124	0.025177	-0.13534	-0.21332	-0.047455	0.011902	-0.085144	0.005341	0.04425	0.15671	-0.00061	-0.012054
57.228	0.003052	0.074615	0.06958	0.000305	0.089417	0.057373	0.003815	0.015411	0.16266	0.007324	-0.009918	-0.011749	0.001984	0.022278	0.037384	0.008545	0.024109	-0.062866	-0.36148	0.063782	0.10117	0.017853	-0.11002	-0.17136	-0.03006	-0.002136	-0.056	0.005341	-0.054474	0.068359	-0.001373	-0.01236
57.229	0.018005	0.029755	0.055542	-0.003052	0.076447	0.070343	-0.039368	0.016174	0.18814	0.016327	-0.001373	-0.009003	-0.003052	-0.007172	0.047455	0.026703	0.032349	-0.12726	-0.30762	-0.018921	0.074158	0.049133	-0.1152	-0.095367	-0.021515	-0.018768	0.003662	0.010681	-0.13962	0.029297	-0.001678	-0.014648
57.23	0.012665	0.059357	0.043488	-0.014038	0.091858	0.084991	-0.064545	0.013885	0.09903	0.015564	0.00061	-0.000763	0.020447	-0.005493	0.048065	0.002441	0.01236	-0.10452	-0.13046	-0.11032	-0.095825	0.18951	-0.15228	-0.047607	-0.003815	-0.032196	0.046082	0.009613	-0.1622	0.024872	-0.002899	-0.016022
57.231	0.001984	0.043793	0.014038	-0.007172	0.06958	0.080109	-0.024567	0.001984	-0.042877	0.024719	0.000458	-0.002594	0.035095	-0.03418	0.033264	0.002899	-0.028687	-0.10147	-0.19974	-0.060425	-0.098572	0.24963	-0.17502	-0.039063	0.014191	-0.031738	0.046997	0.002289	0.057373	0.092773	-0.003662	-0.015106
57.232	0.010071	0.059662	0.023651	0.016022	0.068054	0.056458	-0.034637	-0.001831	-0.10788	0.029755	0.000458	-0.000916	0.014801	-0.094757	-0.018921	0.015717	-0.010986	-0.006561	-0.18585	0.033112	0.024719	0.16113	-0.18478	-0.056915	0.011139	-0.013428	0.056152	0.002136	0.18295	0.097046	0.001068	-0.01709
57.233	0.00824	0.064545	0.041656	0.004883	0.035553	0.052643	0.008087	-0.016327	0.081482	0.024872	-0.001526	0.010223	0.021362	-0.094452	-0.041656	0.023346	-0.000458	0.016937	-0.289	0.084686	-0.044861	0.053864	-0.21927	-0.075989	0.006256	-0.011292	0.058594	0.01709	0.19562	0.10895	-0.006714	-0.020294
57.234	0.000916	0.082092	0.015411	-0.008698	-0.022736	0.12924	0.030518	-0.026398	0.2095	0.030975	-0.004578	-0.000153	0.028839	-0.096893	-0.023499	0.016022	0.005646	0.040283	-0.33203	-0.006104	-0.033875	0.040283	-0.18234	-0.088196	0.007782	-0.023499	0.11963	0.015259	0.012817	0.17502	-0.005493	-0.02533
57.235	-0.009613	0.089417	0.016022	-0.005035	-0.000916	0.1712	0.016632	-0.014954	0.31067	0.026245	0.005035	0.007477	-0.037537	-0.034027	-0.012665	0.034485	0.00885	0.044098	-0.34592	-0.059357	-0.027161	0.079498	-0.14343	-0.11932	0	-0.00824	0.046692	0.012665	0.071259	0.22095	-0.000916	-0.025787
57.236	-0.005341	0.080261	0.019836	0.010681	0.031281	0.1944	-0.018158	-0.004578	0.37766	0.024414	-0.00412	0.01358	-0.035553	-0.011139	0.003052	0.032043	0.024567	0.012665	-0.14984	-0.028687	-0.03479	0.075989	-0.13397	-0.088959	0.003967	-0.001526	-0.10941	-0.004578	0.008698	0.24811	-0.001373	-0.021667
57.237	-0.019836	0.082855	-0.026093	0.003662	0.024719	0.10788	-0.062714	0.00351	0.40832	0.014496	-0.003662	0.004272	0.004425	-0.000153	0.020447	0.034332	0.02655	-0.002289	0.040894	0.000153	-0.001678	0.071106	-0.10269	-0.12421	0.006256	0.006409	-0.054626	0.002441	-0.04837	0.2301	-0.002899	-0.022888
57.238	-0.000916	0.080414	-0.003204	0.007782	0.003204	0.066681	-0.091705	0.00885	0.31479	0.016174	0.01236	0.023499	0.034332	0.001678	0.036316	0.030518	0.04364	0.003357	0.029449	0.025177	-0.006409	0.072784	-0.13626	-0.17181	0.016479	0.006104	0.036469	0.004272	-0.12863	0.14832	-0.003357	-0.029755
57.239	-0.004425	0.10712	-0.020752	-0.00061	-0.006409	-0.049591	-0.045624	0.006256	0.014038	0.006866	0.005341	0.001068	0.048828	-0.022736	0.037231	0.031586	0.027618	0.006256	0.077057	0.18646	-0.055237	0.084839	-0.14725	-0.13107	0.016022	0.005646	0.048523	0.016174	-0.13825	-0.031586	-0.003815	-0.024109
57.24	0.005341	0.10284	-0.016022	-0.004272	-0.021362	-0.17029	-0.05249	-0.006104	-0.25299	0.026855	0.040283	0.025177	0.032501	-0.036621	0.030518	0.03891	0.001831	-0.007324	0.015869	0.19196	-0.11108	0.1828	-0.17792	-0.079803	0.039063	0.002136	0.039673	0.016174	-0.13245	-0.22598	-0.004425	-0.014343
